<?xml version="1.0" standalone="no"?>
<!DOCTYPE svg PUBLIC "-//W3C//DTD SVG 20010904//EN"
 "http://www.w3.org/TR/2001/REC-SVG-20010904/DTD/svg10.dtd">
<svg version="1.0" xmlns="http://www.w3.org/2000/svg"
 width="300.000000pt" height="300.000000pt" viewBox="0 0 300.000000 300.000000"
 preserveAspectRatio="xMidYMid meet">
<metadata>
Created by potrace 1.10, written by Peter Selinger 2001-2011
</metadata>
<g transform="translate(0.000000,300.000000) scale(0.100000,-0.100000)"
fill="#000000" stroke="none">
<path d="M1483 2248 c-37 -39 -115 -150 -109 -155 2 -3 24 11 49 29 24 18 53
38 63 45 17 11 17 12 2 12 -23 1 -23 6 7 58 14 23 24 43 22 43 -2 0 -17 -15
-34 -32z"/>
<path d="M1635 2219 c-104 -61 -226 -143 -294 -200 -51 -42 -61 -56 -61 -82 0
-34 -33 -97 -50 -97 -6 0 -15 10 -19 23 -9 21 -10 20 -26 -18 -39 -88 -14
-135 71 -135 46 0 52 2 47 19 -5 19 21 36 38 25 5 -3 9 5 9 18 0 51 6 53 163
65 42 3 77 9 77 14 0 4 -17 21 -37 38 l-38 31 42 0 c92 0 111 -104 46 -265
-62 -155 -54 -238 26 -288 27 -16 51 -22 96 -21 74 0 124 24 186 91 93 99 129
194 129 338 0 152 -47 261 -157 366 -81 78 -123 98 -57 27 29 -30 61 -72 72
-94 22 -43 42 -128 42 -176 l0 -31 -22 20 c-22 20 -61 43 -72 43 -4 0 5 -18
20 -39 86 -130 66 -300 -38 -326 -42 -11 -88 39 -88 94 0 23 4 41 9 41 14 0
51 -50 51 -68 0 -11 3 -13 10 -6 6 6 11 40 11 76 1 76 -23 132 -72 171 -40 31
-24 42 25 18 41 -21 44 -16 16 38 -26 52 -73 90 -121 97 -52 9 -58 21 -19 38
31 13 32 13 9 19 -13 4 -33 7 -44 7 -26 0 -81 -48 -90 -78 l-6 -22 34 20 35
21 37 -26 c21 -14 48 -25 61 -25 13 0 23 -3 22 -7 0 -5 2 -16 7 -26 4 -11 3
-23 -4 -30 -19 -19 -13 -43 19 -77 17 -18 28 -35 25 -38 -2 -3 -1 -10 4 -16 4
-6 11 -27 15 -46 6 -33 5 -34 -10 -18 -16 16 -19 15 -41 -10 -15 -18 -23 -40
-23 -66 0 -39 0 -39 -21 -20 -16 14 -20 27 -16 51 3 19 1 33 -4 33 -6 0 -1 12
10 26 22 29 27 59 11 69 -5 3 -10 11 -10 16 0 6 5 7 10 4 15 -9 11 16 -9 58
-9 20 -20 34 -24 30 -4 -3 -7 1 -7 9 0 9 -14 21 -31 27 -40 14 -62 14 -54 1 8
-13 -8 -13 -21 0 -10 10 -24 -9 -37 -51 -5 -16 -47 -29 -92 -29 -14 0 -41 -20
-72 -52 -78 -83 -78 -83 -105 -58 -21 20 -22 22 -6 34 10 7 14 16 10 21 -4 4
2 5 13 3 12 -2 27 5 39 20 18 23 63 47 80 43 5 -1 6 5 3 14 -4 9 -1 15 8 15
18 0 29 41 20 70 -5 17 0 29 24 50 38 35 77 50 68 26 -7 -19 1 -46 14 -46 5 0
9 7 9 16 0 19 71 104 150 181 30 29 53 53 50 52 -3 0 -36 -18 -75 -40z m-268
-256 c-6 -15 -23 -39 -36 -53 l-24 -25 7 30 c7 30 42 75 58 75 4 0 2 -12 -5
-27z m623 -92 c0 -11 4 -21 8 -23 5 -1 6 -29 2 -60 -4 -36 -2 -62 4 -68 8 -8
8 -13 0 -18 -6 -4 -13 -20 -17 -37 -3 -16 -9 -39 -13 -49 -5 -14 -4 -17 5 -11
21 12 -4 -28 -33 -56 -14 -13 -26 -29 -26 -35 0 -17 -66 -75 -75 -67 -5 5 -4
1 3 -8 10 -13 8 -16 -17 -16 -20 0 -28 4 -24 14 3 8 -2 13 -15 13 -28 0 -84
54 -76 74 5 12 2 15 -12 10 -16 -6 -17 -4 -7 6 10 11 9 18 -9 37 -27 29 -19
40 10 12 12 -11 27 -17 33 -14 6 4 9 0 7 -11 -2 -13 8 -21 39 -30 36 -11 50
-10 90 4 39 14 48 21 44 37 -3 17 -1 18 15 5 11 -8 16 -11 12 -6 -3 4 0 29 7
54 18 59 21 103 10 121 -14 24 -14 95 1 119 18 27 34 29 34 3z m-332 -292 c0
-27 9 -67 19 -87 21 -42 74 -82 110 -82 14 0 21 -4 18 -10 -9 -15 -92 -12
-123 4 -52 27 -68 91 -49 189 11 53 23 46 25 -14z"/>
<path d="M1126 2060 c-77 -120 -109 -271 -78 -375 28 -97 106 -178 204 -213
26 -9 48 -20 48 -24 0 -4 -18 -13 -40 -19 -31 -10 -46 -10 -66 0 -42 19 -39 7
8 -33 106 -92 205 -126 352 -125 101 1 101 1 54 14 -25 7 -60 22 -76 34 -84
59 -83 205 3 341 45 72 26 140 -40 140 -23 0 -26 -3 -17 -12 15 -15 15 -68 -1
-89 -7 -9 -27 -24 -45 -33 -27 -14 -40 -15 -64 -7 -42 15 -49 4 -15 -24 15
-13 27 -27 27 -30 0 -3 -22 -5 -49 -5 -135 0 -220 89 -229 242 -5 86 7 149 44
222 14 27 23 50 22 52 -2 1 -21 -24 -42 -56z m20 -429 c-3 -4 17 -20 44 -35
27 -15 52 -31 55 -36 4 -6 11 -10 17 -10 6 0 5 7 -3 17 -12 15 -12 16 4 10 10
-4 23 -7 28 -7 6 0 7 -5 3 -12 -5 -8 0 -9 17 -5 13 4 29 7 35 7 17 0 84 56 77
64 -3 3 -1 6 5 6 17 0 47 -33 34 -38 -14 -4 -35 -79 -27 -92 3 -6 -1 -20 -9
-32 -14 -19 -13 -24 4 -49 22 -30 26 -44 9 -33 -6 3 -3 -8 6 -26 9 -17 14 -34
11 -37 -8 -8 -67 5 -100 22 -15 8 -35 15 -43 15 -8 0 -12 4 -9 9 4 5 0 11 -6
14 -9 3 -6 12 10 30 17 17 22 32 17 46 -7 24 -61 65 -74 56 -11 -6 -36 11 -89
63 -19 17 -38 32 -43 32 -4 0 -6 7 -3 15 4 8 13 15 21 15 8 0 12 -4 9 -9z"/>
<path d="M1383 1808 c-30 -39 -16 -69 25 -53 16 6 16 7 -2 20 -11 8 -16 21
-13 30 8 18 3 20 -10 3z"/>
<path d="M560 1193 c0 -4 14 -30 30 -58 19 -31 30 -64 30 -87 0 -34 3 -38 25
-38 23 0 25 4 25 41 0 28 10 59 31 95 l30 54 -26 0 c-20 0 -29 -8 -41 -35 -18
-44 -28 -44 -40 -2 -8 25 -16 33 -37 35 -15 2 -27 0 -27 -5z"/>
<path d="M786 1123 c-13 -43 -28 -86 -31 -95 -6 -15 -2 -18 20 -18 18 0 29 6
32 20 4 15 14 20 39 20 27 0 34 -4 34 -20 0 -15 7 -20 29 -20 l29 0 -31 95
c-31 94 -32 95 -63 95 -32 0 -33 -2 -58 -77z m78 -15 c6 -25 4 -28 -19 -28
-29 0 -29 0 -13 52 12 42 16 39 32 -24z"/>
<path d="M980 1106 c0 -89 1 -96 20 -96 18 0 20 7 21 68 1 70 5 67 29 -25 9
-35 15 -43 33 -43 20 0 25 8 36 53 22 84 30 89 31 15 0 -61 2 -68 20 -68 19 0
20 7 20 95 l0 95 -33 0 c-32 0 -33 -1 -51 -71 -10 -39 -20 -68 -22 -66 -3 3
-13 33 -23 68 -17 60 -20 64 -49 67 l-32 3 0 -95z"/>
<path d="M1250 1105 c0 -92 1 -95 23 -95 20 0 22 4 19 49 -7 90 2 100 22 24
16 -64 21 -73 41 -73 20 0 25 9 40 65 10 36 21 65 24 65 4 0 5 -29 3 -65 -4
-61 -3 -65 17 -65 20 0 21 5 21 96 l0 95 -32 -3 c-30 -3 -33 -6 -48 -65 -8
-34 -18 -64 -21 -68 -4 -3 -15 26 -25 65 -18 69 -18 70 -51 70 l-33 0 0 -95z"/>
<path d="M1525 1105 l0 -95 57 0 c51 0 56 2 51 20 -4 14 -14 20 -34 20 -22 0
-29 5 -29 20 0 16 7 20 30 20 24 0 30 4 30 21 0 19 -4 21 -30 16 -25 -6 -30
-3 -30 13 0 16 7 20 34 20 29 0 33 3 29 20 -4 17 -14 20 -57 20 l-51 0 0 -95z"/>
<path d="M1690 1105 l0 -95 60 0 c53 0 60 2 60 20 0 17 -7 20 -40 20 l-40 0 0
75 c0 68 -2 75 -20 75 -19 0 -20 -7 -20 -95z"/>
<path d="M1855 1105 l0 -95 58 0 c50 0 57 2 57 20 0 16 -7 20 -35 20 -28 0
-35 4 -35 20 0 16 7 20 30 20 24 0 30 4 30 21 0 16 -5 20 -27 17 -20 -2 -29 2
-31 15 -3 14 4 17 32 17 29 0 36 4 36 20 0 18 -7 20 -57 20 l-58 0 0 -95z"/>
<path d="M2059 1194 c-50 -15 -63 -130 -19 -166 33 -27 95 -23 125 7 31 30 35
101 7 135 -17 21 -78 34 -113 24z m70 -48 c7 -8 11 -32 9 -53 -3 -34 -6 -38
-32 -41 -33 -4 -46 10 -46 54 0 49 42 73 69 40z"/>
<path d="M2248 1105 c-3 -94 -3 -95 21 -95 23 0 24 1 17 65 -4 36 -3 65 2 65
4 0 22 -29 40 -65 29 -58 35 -65 62 -65 l30 0 0 95 c0 90 -1 95 -21 95 -20 0
-21 -4 -17 -65 2 -36 1 -65 -2 -65 -4 0 -21 29 -39 65 -28 58 -34 65 -60 65
l-30 0 -3 -95z"/>
</g>
</svg>
